<svg xmlns="http://www.w3.org/2000/svg" viewBox="0 0 72.35 29.51"><g id="Layer_2" data-name="Layer 2"><g id="Layer_1-2" data-name="Layer 1"><path d="M67.78,7.49a6.11,6.11,0,0,1-4.31-1.78L59.88,2.12,56.29,5.71a6.13,6.13,0,0,1-8.63,0L44.08,2.12,40.49,5.71a6.13,6.13,0,0,1-8.63,0L28.27,2.12,24.69,5.71a6.13,6.13,0,0,1-8.63,0L12.47,2.12,8.88,5.71a6.11,6.11,0,0,1-8.62,0A.88.88,0,1,1,1.5,4.46a4.33,4.33,0,0,0,6.14,0L11.85.26A.87.87,0,0,1,12.47,0a.85.85,0,0,1,.62.26l4.21,4.2a4.35,4.35,0,0,0,6.15,0l4.2-4.2a.86.86,0,0,1,1.24,0l4.21,4.2a4.35,4.35,0,0,0,6.15,0L43.46.26A.84.84,0,0,1,44.08,0a.87.87,0,0,1,.62.26l4.21,4.2a4.33,4.33,0,0,0,6.14,0L59.26.26a.87.87,0,0,1,1.24,0l4.21,4.2a4.33,4.33,0,0,0,6.14,0,.88.88,0,0,1,1.24,1.25,6.1,6.1,0,0,1-4.31,1.78" fill="#f7a600"/><path d="M59.88,18.5a6.06,6.06,0,0,1-4.31-1.79L52,13.13l-3.59,3.58a6.11,6.11,0,0,1-8.63,0l-3.58-3.58-3.59,3.58a6.11,6.11,0,0,1-8.63,0l-3.59-3.58-3.58,3.58a6.11,6.11,0,0,1-8.63,0A.88.88,0,0,1,9.4,15.47a4.35,4.35,0,0,0,6.15,0l4.2-4.21a.9.9,0,0,1,.62-.25.87.87,0,0,1,.62.25l4.21,4.21a4.35,4.35,0,0,0,6.15,0l4.21-4.21a.87.87,0,0,1,.62-.25.9.9,0,0,1,.62.25L41,15.47a4.35,4.35,0,0,0,6.15,0l4.21-4.21a.88.88,0,0,1,1.24,0l4.21,4.21a4.33,4.33,0,0,0,6.14,0,.88.88,0,0,1,1.24,0,.86.86,0,0,1,0,1.24,6.08,6.08,0,0,1-4.31,1.79" fill="#f7a600"/><path d="M52,29.51a6.1,6.1,0,0,1-4.32-1.79l-3.58-3.59-3.59,3.59a6.1,6.1,0,0,1-8.63,0l-3.59-3.59-3.58,3.59a6.1,6.1,0,0,1-8.63,0,.88.88,0,0,1,1.24-1.24,4.36,4.36,0,0,0,6.15,0l4.2-4.21a.88.88,0,0,1,1.24,0l4.21,4.21a4.36,4.36,0,0,0,6.15,0l4.21-4.21a.88.88,0,0,1,.62-.26.91.91,0,0,1,.62.26l4.2,4.21a4.36,4.36,0,0,0,6.15,0,.88.88,0,1,1,1.24,1.24A6.06,6.06,0,0,1,52,29.51" fill="#f7a600"/></g></g></svg>